# xmcd
#
# Track frame offsets: 
#        150
#        18214
#        39319
#        61633
#        78922
#        92078
#        119364
#        140213
#        156688
#        179769
#        200208
#        216781
#        235513
#
# Disc length: 3433 seconds
#
# Revision: 2
# Processed by: cddbd v1.5.2PL0 Copyright (c) Steve Scherf et al.
# Submitted via: ExactAudioCopyFreeDBPlugin 1.0
#
DISCID=b50d670d
DTITLE=Aktorių Trio - Vėl Kartu
DYEAR=2003
DGENRE=Other
TTITLE0=Vakaras
TTITLE1=Ruduo
TTITLE2=Atvirukas
TTITLE3=Cigaretė
TTITLE4=Daina
TTITLE5=Chrizantemos
TTITLE6=Du
TTITLE7=Užtrauktukas
TTITLE8=Svirtys
TTITLE9=Pasakyki Man
TTITLE10=Žvėrynas
TTITLE11=Kalėdos
TTITLE12=Sniegas
EXTD=Kaip kazkam faina, nebereks rasyti pavadinimu.. ;]\n ACiu\\\\\\
EXTT0=
EXTT1=
EXTT2=
EXTT3=
EXTT4=
EXTT5=
EXTT6=
EXTT7=
EXTT8=
EXTT9=
EXTT10=
EXTT11=
EXTT12=
PLAYORDER=
